<?xml version="1.0" encoding="UTF-8"?>
<svg width="189px" height="197px" viewBox="0 0 189 197" version="1.1" xmlns="http://www.w3.org/2000/svg" xmlns:xlink="http://www.w3.org/1999/xlink">
    <!-- Generator: Sketch 49 (51002) - http://www.bohemiancoding.com/sketch -->
    <title>TopUps_ICO</title>
    <desc>Created with Sketch.</desc>
    <defs></defs>
    <g id="Page-1" stroke="none" stroke-width="1" fill="none" fill-rule="evenodd">
        <g id="TopUps" fill="#FC4C02" fill-rule="nonzero">
            <path d="M57.4842565,0 L131.515744,0 C140.619747,0 148,7.40085707 148,16.4237605 L148,180.57624 C148,189.646832 140.645457,197 131.515744,197 L57.4842565,197 C48.380253,197 41,189.599143 41,180.57624 L41,16.4237605 C41,7.35316804 48.3545434,0 57.4842565,0 Z M49.2307692,180.57624 C49.2307692,185.084216 52.9444273,188.791667 57.4842565,188.791667 L131.515744,188.791667 C136.090608,188.791667 139.769231,185.122591 139.769231,180.57624 L139.769231,16.4237605 C139.769231,11.9157836 136.055573,8.20833333 131.515744,8.20833333 L57.4842565,8.20833333 C52.9093921,8.20833333 49.2307692,11.8774087 49.2307692,16.4237605 L49.2307692,180.57624 Z" id="Shape"></path>
            <path d="M41,25 L148,25 L148,156 L41,156 L41,25 Z M98.6153846,64.9598774 L98.6153846,57.75 L90.3846154,57.75 L90.3846154,65.3466299 C82.2811251,67.1775974 76.8757083,73.3342082 76.8757083,80.7926191 C76.8757083,98.4184874 104.801533,95.7380555 104.801533,108.165511 C104.801533,113.607599 100.228883,116.612932 94.8396888,116.612932 C86.2659706,116.612932 80.1418866,110.439816 80.1418866,110.439816 L75.569237,116.531707 C75.569237,116.531707 80.8374902,122.333752 90.3846154,123.767986 L90.3846154,131.4375 L98.6153846,131.4375 L98.6153846,123.775723 C107.665196,122.296777 112.966979,115.70576 112.966979,107.921836 C112.966979,89.3212653 85.0411539,92.4890475 85.0411539,80.6301687 C85.0411539,76.0815575 89.3688405,72.2639732 95.4929246,72.2639732 C102.841825,72.2639732 108.149365,77.2187103 108.149365,77.2187103 L111.823816,70.5582441 C111.823816,70.5582441 107.283161,65.9105377 98.6153846,64.9598774 Z" id="Combined-Shape"></path>
            <rect id="Rectangle-path" x="41" y="156" width="107" height="8"></rect>
            <path d="M104.511506,172 L84.4884942,172 C83.1141367,172 82,173.112366 82,174.356994 L82,177.643006 C82,178.944738 83.0742183,180 84.4884942,180 L104.511506,180 C105.885863,180 107,178.887634 107,177.643006 L107,174.356994 C107,173.055262 105.925782,172 104.511506,172 Z" id="Shape"></path>
            <path d="M172.42832,89.9999998 C172.42832,82.3682237 168.912579,75.3862271 163.213472,70.7982782 L158,77.1979292 C161.798991,80.2570033 164.14248,84.9117904 164.14248,89.9999998 C164.14248,95.0882093 161.798991,99.7429964 158,102.802071 L163.213472,109.201722 C168.912579,104.613773 172.42832,97.6317751 172.42832,89.9999998 Z M189,89.9999998 C189,77.37175 183.230225,65.7162711 173.639582,58 L168.426143,64.3996112 C176.1022,70.5757103 180.71416,79.8947843 180.71416,89.9999998 C180.71416,100.105215 176.1022,109.42429 168.426143,115.600388 L173.639582,122 C183.230225,114.283729 189,102.62825 189,89.9999998 Z" id="Shape"></path>
            <path d="M25.786528,70.7982782 L31,77.1979292 C27.2010094,80.2570033 24.8575197,84.9117904 24.8575197,89.9999998 C24.8575197,95.0882093 27.2010094,99.7429964 31,102.802071 L25.786528,109.201722 C20.0874218,104.613773 16.5716798,97.6317751 16.5716798,89.9999998 C16.5716798,82.3682237 20.0874218,75.3862271 25.786528,70.7982782 Z M15.3604181,58 L20.5738577,64.3996112 C12.8978009,70.5757103 8.2858399,79.8947843 8.2858399,89.9999998 C8.2858399,100.105215 12.8978009,109.42429 20.5738577,115.600388 L15.3604181,122 C5.76977555,114.283729 0,102.62825 0,89.9999998 C0,77.37175 5.76977555,65.7162711 15.3604181,58 Z" id="Shape"></path>
        </g>
    </g>
</svg>